<?xml version="1.0" encoding="utf-8"?>
<!-- Generator: Adobe Illustrator 23.0.3, SVG Export Plug-In . SVG Version: 6.00 Build 0)  -->
<svg version="1.1" xmlns="http://www.w3.org/2000/svg" xmlns:xlink="http://www.w3.org/1999/xlink" x="0px" y="0px"
	 viewBox="0 0 595.28 841.89" style="enable-background:new 0 0 595.28 841.89;" xml:space="preserve">
<style type="text/css">
	.st0{display:none;}
	.st1{display:inline;fill:#FFFFFF;stroke:#000000;stroke-width:2;stroke-miterlimit:10;}
	.st2{display:inline;fill:none;stroke:#000000;stroke-width:2;stroke-miterlimit:10;}
	.st3{fill:#FFFFFF;}
	.st4{fill:none;stroke:#FFFFFF;stroke-miterlimit:10;}
</style>
<g id="Calque_6" class="st0">
	<line class="st1" x1="326.54" y1="406.3" x2="326.54" y2="232.89"/>
</g>
<g id="Calque_7" class="st0">
	<line class="st2" x1="342.77" y1="406.44" x2="342.77" y2="232.83"/>
</g>
<g id="Calque_8" class="st0">
	<line class="st1" x1="359.45" y1="232.89" x2="359.45" y2="406.3"/>
</g>
<g id="Calque_2" class="st0">
	<path class="st2" d="M413.34,576.65c-30.52,0-55.35-24.83-55.35-55.35l-0.04-0.04v-88"/>
</g>
<g id="Calque_3" class="st0">
	<path class="st2" d="M341.77,432.76v87.85l0.04-0.19c0,39.41,31.89,71.3,71.3,71.3"/>
</g>
<g id="Calque_4" class="st0">
	<path class="st2" d="M326.04,432.76v20.36c-15.18-12.56-34.65-20.11-55.84-20.11c-48.38,0-87.74,39.36-87.74,87.75
		c0,48.38,39.36,87.74,87.74,87.74c29.69,0,55.97-14.84,71.85-37.48c15.81,22.38,41.86,37.03,71.28,37.03"/>
</g>
<g id="Calque_5" class="st0">
	<path class="st2" d="M341.54,521.62c0,39.65-32.14,71.79-71.79,71.79c-39.65,0-71.79-32.14-71.79-71.79
		c0-39.65,32.14-71.79,71.79-71.79C309.39,449.83,341.54,481.97,341.54,521.62z"/>
</g>
<g id="Calque_1" class="st0">
	<path class="st2" d="M270.2,576.6c-30.79,0-55.84-25.05-55.84-55.84s25.05-55.84,55.84-55.84c30.79,0,55.84,25.05,55.84,55.84
		S300.99,576.6,270.2,576.6z"/>
</g>
<g id="Calque_9">
	<g>
		<rect x="311.47" y="221.93" class="st3" width="32.91" height="173.41"/>
		<path class="st3" d="M343.73,510.3l-0.04-0.04v-88l-31.91-0.5v20.36c-15.18-12.56-34.65-20.11-55.84-20.11
			c-48.38,0-87.74,39.36-87.74,87.75c0,48.38,39.36,87.74,87.74,87.74c29.69,0,55.97-14.84,71.85-37.48
			c15.81,22.38,41.86,37.03,71.28,37.03v-31.41C368.56,565.65,343.73,540.82,343.73,510.3z M255.95,565.6
			c-30.79,0-55.84-25.05-55.84-55.84s25.05-55.84,55.84-55.84c30.79,0,55.84,25.05,55.84,55.84S286.73,565.6,255.95,565.6z"/>
	</g>
	<circle class="st4" cx="297.29" cy="421.76" r="262.34"/>
</g>
</svg>
